<?xml version="1.0" encoding="utf-8"?>
<!-- Generator: Adobe Illustrator 21.0.0, SVG Export Plug-In . SVG Version: 6.00 Build 0)  -->
<svg version="1.1" id="图层_1" xmlns="http://www.w3.org/2000/svg" xmlns:xlink="http://www.w3.org/1999/xlink" x="0px" y="0px"
	 viewBox="0 0 1242 2208" style="enable-background:new 0 0 1242 2208;" xml:space="preserve">
<style type="text/css">
	.st0{fill:#FFFFFF;}
	.st1{fill:#999999;}
	.st2{fill:#666666;}
	.st3{fill:#FFFFFF;stroke:#000000;stroke-miterlimit:10;}
	.st4{fill:#FFFFFF;stroke:#29AAE1;stroke-width:30;stroke-miterlimit:10;}
	.st5{fill:#29AAE1;}
</style>
<g>
	<g>
		<circle class="st0" cx="621" cy="856.6" r="449.1"/>
		<path class="st1" d="M621,1309.7c-61.2,0-120.5-12-176.4-35.6c-54-22.8-102.4-55.5-144-97.1s-74.3-90.1-97.1-144
			c-23.6-55.9-35.6-115.2-35.6-176.4s12-120.5,35.6-176.4c22.8-54,55.5-102.4,97.1-144s90.1-74.3,144-97.1
			c55.9-23.6,115.2-35.6,176.4-35.6s120.5,12,176.4,35.6c54,22.8,102.4,55.5,144,97.1c41.6,41.6,74.3,90.1,97.1,144
			c23.6,55.9,35.6,115.2,35.6,176.4s-12,120.5-35.6,176.4c-22.8,54-55.5,102.4-97.1,144c-41.6,41.6-90.1,74.3-144,97.1
			C741.5,1297.7,682.2,1309.7,621,1309.7z M621,411.5c-60.1,0-118.4,11.8-173.2,35c-53,22.4-100.6,54.5-141.5,95.4
			c-40.9,40.9-73,88.5-95.4,141.5c-23.2,54.9-35,113.2-35,173.2s11.8,118.4,35,173.2c22.4,53,54.5,100.6,95.4,141.5
			c40.9,40.9,88.5,73,141.5,95.4c54.9,23.2,113.2,35,173.2,35s118.4-11.8,173.2-35c53-22.4,100.6-54.5,141.5-95.4
			c40.9-40.9,73-88.5,95.4-141.5c23.2-54.9,35-113.2,35-173.2s-11.8-118.4-35-173.2c-22.4-53-54.5-100.6-95.4-141.5
			c-40.9-40.9-88.5-73-141.5-95.4C739.4,423.3,681.1,411.5,621,411.5z"/>
	</g>
	<g>
		<g>
			<path class="st2" d="M881.3,997.4H671.4c0.1,1.4,0.2,2.8,0.2,4.2c0,1.8-0.1,3.6-0.3,5.3h210.1c-0.2-1.8-0.3-3.5-0.3-5.3
				C881.1,1000.2,881.2,998.8,881.3,997.4z"/>
			<path class="st2" d="M566.6,997.4H356.7c0.1,1.4,0.2,2.8,0.2,4.2c0,1.8-0.1,3.6-0.3,5.3h210.1c-0.2-1.8-0.3-3.5-0.3-5.3
				C566.5,1000.2,566.5,998.8,566.6,997.4z"/>
			<path class="st2" d="M662.5,791.5l123.9-74.6c-1.8-2.4-3.3-5-4.7-7.7c-0.1-0.2-0.1-0.3-0.2-0.5l-127.2,76.6l-95.5-71.9
				c-1.6,2.6-3.4,5-5.4,7.3c-0.1,0.1-0.2,0.2-0.3,0.4l92.4,69.6L346.7,970.6c1.8,2.4,3.4,5,4.7,7.7c0.1,0.2,0.1,0.3,0.2,0.5
				l302.1-181.9L889,974c1.6-2.6,3.4-5,5.4-7.3c0.1-0.1,0.2-0.2,0.3-0.4L662.5,791.5z"/>
		</g>
		<path class="st3" d="M476.6,623.5"/>
		<path class="st3" d="M470.3,622.9"/>
		<path class="st4" d="M588.4,999.5"/>
		<path class="st4" d="M829.1,622.9"/>
		<path class="st5" d="M933.7,949.1c3.6,0,7.2,0.4,10.6,1.1L868,720.7c-9.6,10.8-23.6,17.6-39.3,17.6c-3.6,0-7.2-0.4-10.6-1.1
			c-16-3.3-29.4-13.8-36.5-28.1l-154.8,233l-73.6-221.5c-9.6,10.8-23.6,17.6-39.3,17.6c-20.6,0-38.4-11.9-47.1-29.2l-159.4,240
			c19.2,1.2,35.6,12.7,43.7,29l154.8-233l73.6,221.5c9.6-10.8,23.6-17.6,39.3-17.6c20.6,0,38.4,11.9,47.1,29.2l154.8-233l73.6,221.5
			C904,955.9,918.1,949.1,933.7,949.1z"/>
		<g>
			<path class="st2" d="M666.1,978.3c-8.6-17.3-26.4-29.2-47.1-29.2c-15.6,0-29.6,6.8-39.3,17.6c-7.4,8.3-12.2,19-13.1,30.7
				c-0.1,1.4-0.2,2.8-0.2,4.2c0,1.8,0.1,3.6,0.3,5.3c2.7,26.5,25.1,47.2,52.3,47.2s49.6-20.7,52.3-47.2c0.2-1.8,0.3-3.5,0.3-5.3
				c0-1.4-0.1-2.8-0.2-4.2C670.8,990.6,669,984.1,666.1,978.3z"/>
			<path class="st2" d="M351.6,978.8c-0.1-0.2-0.1-0.3-0.2-0.5c-1.3-2.7-2.9-5.3-4.7-7.7c-9-12.2-23-20.4-39-21.4
				c-1.1-0.1-2.2-0.1-3.3-0.1c-29,0-52.5,23.5-52.5,52.5c0,29,23.5,52.5,52.5,52.5c27.2,0,49.6-20.7,52.3-47.2
				c0.2-1.8,0.3-3.5,0.3-5.3c0-1.4-0.1-2.8-0.2-4.2C356.2,990.8,354.4,984.5,351.6,978.8z"/>
			<path class="st2" d="M514.1,633.3c-29,0-52.5,23.5-52.5,52.5c0,8.4,2,16.3,5.5,23.4c8.6,17.3,26.4,29.2,47.1,29.2
				c15.4,0,29.3-6.7,38.9-17.3c0.1-0.1,0.2-0.2,0.3-0.4c2-2.3,3.8-4.7,5.4-7.3c5-8,7.9-17.5,7.9-27.7
				C566.7,656.8,543.1,633.3,514.1,633.3z"/>
			<path class="st2" d="M828.8,633.3c-29,0-52.5,23.5-52.5,52.5c0,8.2,1.9,16,5.3,22.9c0.1,0.2,0.1,0.3,0.2,0.5
				c1.3,2.7,2.9,5.3,4.7,7.7c7.6,10.3,18.8,17.8,31.8,20.4c3.4,0.7,6.9,1.1,10.6,1.1c15.6,0,29.6-6.8,39.3-17.6
				c8.3-9.3,13.3-21.5,13.3-34.9C881.3,656.8,857.8,633.3,828.8,633.3z"/>
			<path class="st2" d="M944.2,950.2c-3.4-0.7-6.9-1.1-10.6-1.1c-15.4,0-29.3,6.7-38.9,17.3c-0.1,0.1-0.2,0.2-0.3,0.4
				c-2,2.3-3.8,4.7-5.4,7.3c-4.3,6.9-7,14.9-7.7,23.4c-0.1,1.4-0.2,2.8-0.2,4.2c0,1.8,0.1,3.6,0.3,5.3c2.7,26.5,25.1,47.2,52.3,47.2
				c29,0,52.5-23.5,52.5-52.5C986.2,976.3,968.2,955.1,944.2,950.2z"/>
		</g>
	</g>
</g>
</svg>
